<svg xmlns="http://www.w3.org/2000/svg" viewBox="0 0 1800 1100" fill="none">
  <rect width="1800" height="1100" fill="#0b3942"/>
  <g opacity=".16">
    <path d="M1170 240h300" stroke="#e4bd6e" stroke-width="3"/>
    <path d="M1320 240v460" stroke="#e4bd6e" stroke-width="3"/>
    <path d="M1228 412h184" stroke="#e4bd6e" stroke-width="3"/>
    <path d="M1256 412l-96 214h192l-96-214Z" stroke="#e4bd6e" stroke-width="3"/>
    <path d="M1384 412l-96 214h192l-96-214Z" stroke="#e4bd6e" stroke-width="3"/>
    <path d="M1214 626c15 44 48 69 99 69s84-25 99-69" stroke="#e4bd6e" stroke-width="3"/>
    <path d="M1342 626c15 44 48 69 99 69s84-25 99-69" stroke="#e4bd6e" stroke-width="3"/>
    <path d="M1258 768h124" stroke="#e4bd6e" stroke-width="3"/>
    <path d="M1208 824h224" stroke="#e4bd6e" stroke-width="3"/>
  </g>
  <g opacity=".11">
    <rect x="1030" y="720" width="540" height="70" rx="4" stroke="#ffffff" stroke-width="2"/>
    <rect x="1068" y="790" width="540" height="70" rx="4" stroke="#ffffff" stroke-width="2"/>
    <rect x="1000" y="860" width="540" height="70" rx="4" stroke="#ffffff" stroke-width="2"/>
    <path d="M1078 755h390M1116 825h390M1048 895h390" stroke="#ffffff" stroke-width="2"/>
  </g>
  <g opacity=".09">
    <path d="M80 180h540M80 250h430M80 320h520M80 390h360" stroke="#ffffff" stroke-width="2"/>
    <path d="M142 716c202-74 348-72 544 8 244 100 450 84 664-50" stroke="#e4bd6e" stroke-width="2"/>
    <path d="M118 778c202-74 348-72 544 8 244 100 450 84 664-50" stroke="#ffffff" stroke-width="2"/>
  </g>
  <radialGradient id="gold-glow" cx="0" cy="0" r="1" gradientUnits="userSpaceOnUse" gradientTransform="translate(1370 540) rotate(90) scale(560)">
    <stop stop-color="#e4bd6e" stop-opacity=".32"/>
    <stop offset="1" stop-color="#e4bd6e" stop-opacity="0"/>
  </radialGradient>
  <rect width="1800" height="1100" fill="url(#gold-glow)" opacity=".45"/>
</svg>
